<?xml version="1.0" standalone="no"?>
<!DOCTYPE svg PUBLIC "-//W3C//DTD SVG 20010904//EN"
 "http://www.w3.org/TR/2001/REC-SVG-20010904/DTD/svg10.dtd">
<svg version="1.0" xmlns="http://www.w3.org/2000/svg"
 width="59.000000pt" height="75.000000pt" viewBox="0 0 59.000000 75.000000"
 preserveAspectRatio="xMidYMid meet">
<metadata>
Created by potrace 1.16, written by Peter Selinger 2001-2019
</metadata>
<g transform="translate(0.000000,75.000000) scale(0.100000,-0.100000)"
fill="#000000" stroke="none">
<path d="M0 744 c0 -3 5 -14 10 -25 7 -13 7 -19 0 -19 -5 0 -10 -9 -10 -20 0
-14 7 -20 23 -21 22 0 22 0 1 -9 -17 -7 -21 -18 -23 -65 -1 -39 2 -54 9 -50 6
4 9 13 6 20 -3 8 2 19 10 25 8 7 14 19 14 26 0 18 16 18 23 0 3 -8 15 -12 30
-9 30 6 41 -24 24 -62 -10 -20 -19 -25 -49 -25 -37 0 -38 -1 -38 -39 0 -44
-16 -64 -23 -29 -2 13 -5 -32 -6 -100 0 -71 3 -121 8 -118 5 3 7 15 4 26 -5
17 0 20 31 20 25 0 36 4 36 15 0 9 9 15 24 15 13 0 32 3 42 7 14 5 16 2 12
-20 -4 -20 1 -30 18 -42 30 -19 40 -19 24 0 -7 9 -10 18 -7 22 4 3 2 12 -4 20
-16 19 6 17 25 -2 8 -9 13 -22 10 -30 -4 -10 1 -15 15 -15 12 0 21 -6 19 -12
-1 -7 3 -23 10 -35 8 -15 9 -23 2 -23 -5 0 -10 -5 -10 -10 0 -6 6 -9 13 -8 6
2 11 -5 11 -15 -1 -10 1 -15 5 -12 3 4 7 70 8 148 1 100 5 143 13 145 9 3 9 6
-1 13 -12 7 -14 58 -5 194 2 22 -1 48 -6 57 -4 10 -4 19 1 22 5 3 7 15 4 26
-5 19 -14 20 -154 20 -82 0 -149 -3 -149 -6z"/>
</g>
</svg>
